<svg id="login" xmlns="http://www.w3.org/2000/svg" viewBox="0 0 22 22" xml:space="preserve" width="22" height="22" fill="currentColor">
  <path d="M0 10.998c0 .343.274.617.617.617h14.9l-3.194 3.194a.621.621 0 0 0 .434 1.056.6.6 0 0 0 .434-.183l4.249-4.249a.616.616 0 0 0 0-.873l-4.249-4.249c-.242-.242-.631-.242-.873 0s-.242.631 0 .873l3.194 3.194H.617a.62.62 0 0 0-.617.62"/>
  <path d="M17.472 0H4.523A4.53 4.53 0 0 0 0 4.523v2.659c0 .343.274.617.617.617s.617-.274.617-.617V4.523a3.294 3.294 0 0 1 3.29-3.29h12.953a3.294 3.294 0 0 1 3.29 3.29v12.953a3.294 3.294 0 0 1-3.29 3.29H4.523a3.294 3.294 0 0 1-3.29-3.29v-2.627c0-.343-.274-.617-.617-.617S0 14.507 0 14.849v2.627a4.527 4.527 0 0 0 4.523 4.523h12.953a4.527 4.527 0 0 0 4.523-4.523V4.523A4.534 4.534 0 0 0 17.471 0"/>
</svg>
